<svg width="24" height="24" viewBox="0 0 24 24" fill="none" xmlns="http://www.w3.org/2000/svg">
  <title>Person multiple (outlined)</title>
  <g transform="matrix(
          1 0
          0 1
          1 1
        )"><path fill-rule="evenodd" clip-rule="evenodd" d="M 2 4.5 C 2 2 4 0 6.5 0 C 9 0 11 2 11 4.5 C 11 7 9 9 6.5 9 C 4 9 2 7 2 4.5 Z M 5 4.5 C 5 5.300048828125 5.7001953125 6 6.5 6 C 7.2998046875 6 8 5.300048828125 8 4.5 C 8 3.699951171875 7.2998046875 3 6.5 3 C 5.7001953125 3 5 3.699951171875 5 4.5 Z M 22 4.5 C 22 7 20 9 17.5 9 C 15 9 13 7 13 4.5 C 13 2 15 0 17.5 0 C 20 0 22 2 22 4.5 Z M 19 4.5 C 19 3.699951171875 18.2998046875 3 17.5 3 C 16.7001953125 3 16 3.699951171875 16 4.5 C 16 5.300048828125 16.7001953125 6 17.5 6 C 18.2998046875 6 19 5.300048828125 19 4.5 Z M 0 16 L 0 22 L 3 22 L 3 16 C 3 14.9000244140625 3.89990234375 14 5 14 L 9 14 L 9 11 L 5 11 C 2.2001953125 11 0 13.199951171875 0 16 Z M 11 22 L 11 16 C 11 13.199951171875 13.2001953125 11 16 11 L 22 11 L 22 14 L 16 14 C 14.89990234375 14 14 14.9000244140625 14 16 L 14 22 L 11 22 Z" fill="currentColor"/></g>
</svg>