<svg xmlns="http://www.w3.org/2000/svg" width="24" height="24" fill="none"><g transform="translate(1 1)"><path fill="currentColor" fill-rule="evenodd" d="M2 4.5C2 2 4 0 6.5 0S11 2 11 4.5 9 9 6.5 9 2 7 2 4.5zm3 0C5 5.3 5.7 6 6.5 6S8 5.3 8 4.5 7.3 3 6.5 3 5 3.7 5 4.5zm17 0C22 7 20 9 17.5 9S13 7 13 4.5 15 0 17.5 0 22 2 22 4.5zm-3 0c0-.8-.7-1.5-1.5-1.5S16 3.7 16 4.5 16.7 6 17.5 6 19 5.3 19 4.5zM0 16v6h3v-6c0-1.1.9-2 2-2h4v-3H5c-2.8 0-5 2.2-5 5zm11 6v-6c0-2.8 2.2-5 5-5h6v3h-6c-1.1 0-2 .9-2 2v6h-3z" clip-rule="evenodd"/></g></svg>